<svg xmlns="http://www.w3.org/2000/svg" viewBox="0 0 124 124"><defs><radialGradient id="bg" cx=".3" cy=".2" r="1"><stop stop-color="#fff"/><stop offset="1" stop-color="#f9ddd5"/></radialGradient><linearGradient id="skin" x2="1" y2="1"><stop stop-color="#ebaf86"/><stop offset="1" stop-color="#c78c65"/></linearGradient><clipPath id="circle"><circle cx="62" cy="62" r="58"/></clipPath></defs><circle cx="62" cy="62" r="60" fill="#fff"/><g clip-path="url(#circle)"><circle cx="62" cy="62" r="58" fill="url(#bg)"/><path d="M24 130V113Q28 94 52 94H73Q97 96 103 116V130Z" fill="#f5f1ed"/><path d="M52 82V100Q62 111 73 100V82" fill="url(#skin)"/><path d="M31 65Q16 37 40 25Q44 4 63 10Q85 3 84 25Q107 41 93 85L82 55Q67 40 48 45Z" fill="#30221f"/><ellipse cx="36" cy="61" rx="6" ry="9" fill="#ebaf86"/><ellipse cx="88" cy="61" rx="6" ry="9" fill="#c78c65"/><path d="M38 44Q62 29 86 44V68Q84 91 62 95Q40 91 38 68Z" fill="url(#skin)"/><path d="M45 52Q50 49 55 52M69 52Q74 49 79 52" fill="none" stroke="#30221f" stroke-width="3" stroke-linecap="round"/><ellipse cx="51" cy="59" rx="3.1" ry="4" fill="#251b19"/><ellipse cx="74" cy="59" rx="3.1" ry="4" fill="#251b19"/><circle cx="52" cy="58" r="1" fill="#fff"/><circle cx="75" cy="58" r="1" fill="#fff"/><path d="m62 60-3 10h5" fill="none" stroke="#c78c65" stroke-width="2" stroke-linecap="round"/><path d="M53 77Q62 90 73 77Z" fill="#542c24"/><path d="M55 77H71L68 81H58Z" fill="#fff7ed"/><path d="M38 45Q53 36 66 39Q83 48 87 43L85 31 46 29Z" fill="#30221f"/></g></svg>